<?xml version="1.0" encoding="UTF-8"?>
<!DOCTYPE svg PUBLIC "-//W3C//DTD SVG 1.1//EN" "http://www.w3.org/Graphics/SVG/1.1/DTD/svg11.dtd">
<svg xmlns="http://www.w3.org/2000/svg" version="1.1" width="500px" height="500px" style="shape-rendering:geometricPrecision; text-rendering:geometricPrecision; image-rendering:optimizeQuality; fill-rule:evenodd; clip-rule:evenodd" xmlns:xlink="http://www.w3.org/1999/xlink">
<g><path style="opacity:0.039" fill="#3a4141" d="M 274.5,106.5 C 276.026,107.492 276.693,108.992 276.5,111C 276.486,112.385 276.152,113.551 275.5,114.5C 275.599,111.763 275.265,109.096 274.5,106.5 Z"/></g>
<g><path style="opacity:0.999" fill="#a6aea9" d="M 274.5,106.5 C 275.265,109.096 275.599,111.763 275.5,114.5C 275.405,116.786 274.738,118.786 273.5,120.5C 271.837,122.438 271.171,124.772 271.5,127.5C 270.466,128.687 269.133,129.52 267.5,130C 268.308,130.308 268.975,130.808 269.5,131.5C 267.947,132.439 266.613,133.606 265.5,135C 266.233,136.766 266.567,138.599 266.5,140.5C 265.107,147.346 263.107,154.013 260.5,160.5C 256.909,162.782 255.576,166.116 256.5,170.5C 255.707,174.959 253.04,177.292 248.5,177.5C 247.167,177.5 245.833,177.5 244.5,177.5C 242.357,175.869 240.69,173.869 239.5,171.5C 240.852,156.74 242.852,142.073 245.5,127.5C 246.924,125.485 247.59,123.152 247.5,120.5C 246.717,115.442 248.717,111.942 253.5,110C 257.745,108.349 262.079,107.016 266.5,106C 269.367,105.199 272.034,105.366 274.5,106.5 Z"/></g>
<g><path style="opacity:0.518" fill="#5f605c" d="M 273.5,120.5 C 273.279,123.067 272.612,125.401 271.5,127.5C 271.171,124.772 271.837,122.438 273.5,120.5 Z"/></g>
<g><path style="opacity:0.243" fill="#474b47" d="M 247.5,120.5 C 247.59,123.152 246.924,125.485 245.5,127.5C 245.41,124.848 246.076,122.515 247.5,120.5 Z"/></g>
<g><path style="opacity:0.918" fill="#747875" d="M 271.5,127.5 C 270.63,132.223 268.964,136.556 266.5,140.5C 266.567,138.599 266.233,136.766 265.5,135C 266.613,133.606 267.947,132.439 269.5,131.5C 268.975,130.808 268.308,130.308 267.5,130C 269.133,129.52 270.466,128.687 271.5,127.5 Z"/></g>
<g><path style="opacity:0.996" fill="#924444" d="M 361.5,151.5 C 355.597,148.816 349.597,146.316 343.5,144C 327.142,143.227 310.808,143.393 294.5,144.5C 295.263,143.732 296.263,143.232 297.5,143C 306.029,142.319 314.529,141.485 323,140.5C 331.143,141.434 339.309,142.268 347.5,143C 353.031,144.591 357.698,147.424 361.5,151.5 Z"/></g>
<g><path style="opacity:1" fill="#cb5656" d="M 361.5,151.5 C 364.089,152.419 366.089,154.086 367.5,156.5C 367.427,158.027 368.094,159.027 369.5,159.5C 371.924,162.008 373.59,165.008 374.5,168.5C 376.292,175.306 378.292,181.972 380.5,188.5C 380.5,189.167 380.5,189.833 380.5,190.5C 380.667,201.838 380.5,213.172 380,224.5C 378.396,233.432 377.563,242.432 377.5,251.5C 377.036,256.621 376.036,261.621 374.5,266.5C 373.001,267.678 372.001,269.345 371.5,271.5C 370.572,277.2 369.572,282.867 368.5,288.5C 368.204,290.403 367.537,292.07 366.5,293.5C 363.305,296.404 361.972,300.071 362.5,304.5C 361.265,304.721 360.265,305.388 359.5,306.5C 355.735,313.378 353.068,320.711 351.5,328.5C 350.417,328.539 349.417,328.873 348.5,329.5C 346.956,332.356 345.956,335.356 345.5,338.5C 344.5,338.5 343.5,338.5 342.5,338.5C 342.116,340.929 341.449,343.263 340.5,345.5C 339.127,345.343 337.793,345.51 336.5,346C 336.784,347.956 336.784,350.123 336.5,352.5C 334.488,351.986 332.488,351.82 330.5,352C 331.516,352.519 332.182,353.353 332.5,354.5C 330.69,356.623 329.357,358.957 328.5,361.5C 326.586,362.185 324.586,362.685 322.5,363C 321.289,364.113 321.289,365.28 322.5,366.5C 321.263,367.281 320.263,368.281 319.5,369.5C 318.635,370.583 317.635,370.749 316.5,370C 317.711,369.107 317.711,368.274 316.5,367.5C 315.859,369.296 314.859,370.796 313.5,372C 313.833,372.333 314.167,372.667 314.5,373C 313.552,373.483 312.552,373.649 311.5,373.5C 311.5,375.167 311.5,376.833 311.5,378.5C 309.833,378.5 308.167,378.5 306.5,378.5C 306.5,379.833 306.5,381.167 306.5,382.5C 304.092,383.201 301.758,384.201 299.5,385.5C 298.873,386.417 298.539,387.417 298.5,388.5C 296.143,388.337 293.81,388.503 291.5,389C 291.833,389.333 292.167,389.667 292.5,390C 285.688,394.42 280.855,392.92 278,385.5C 277.667,386.167 277.333,386.833 277,387.5C 273.433,386.836 269.599,386.169 265.5,385.5C 260.485,379.049 254.152,377.049 246.5,379.5C 244.801,379.34 243.134,379.506 241.5,380C 241.833,380.333 242.167,380.667 242.5,381C 239.828,381.834 237.161,382.668 234.5,383.5C 233.575,384.357 232.908,385.357 232.5,386.5C 227.156,386.666 221.823,386.499 216.5,386C 214.281,382.955 211.281,381.789 207.5,382.5C 205.246,381.876 203.579,380.543 202.5,378.5C 200.592,375.903 198.592,373.237 196.5,370.5C 194.925,369.544 193.258,368.877 191.5,368.5C 188.792,366.734 186.792,364.401 185.5,361.5C 182.249,357.336 179.749,352.67 178,347.5C 176.853,348.458 175.853,348.125 175,346.5C 173.36,344.421 172.194,342.088 171.5,339.5C 170.311,338.571 168.978,338.238 167.5,338.5C 167.715,336.821 167.048,335.821 165.5,335.5C 163.457,334.421 162.124,332.754 161.5,330.5C 160.138,325.444 157.972,320.778 155,316.5C 154.329,315.748 153.496,315.414 152.5,315.5C 151.542,315.047 150.708,314.381 150,313.5C 148.14,309.78 146.307,306.114 144.5,302.5C 142.883,296.604 140.717,290.937 138,285.5C 133.446,280.388 131.113,274.388 131,267.5C 129.296,265.627 127.463,263.96 125.5,262.5C 123.05,257.48 121.383,252.147 120.5,246.5C 118.839,234.937 118.339,223.27 119,211.5C 119.87,207.176 120.703,202.842 121.5,198.5C 122.478,198.023 123.311,197.357 124,196.5C 124.548,192.83 125.048,189.163 125.5,185.5C 126.643,185.092 127.643,184.425 128.5,183.5C 129.331,178.633 131.998,176.633 136.5,177.5C 134.152,178.86 133.985,180.527 136,182.5C 136.678,179.697 137.844,177.197 139.5,175C 138.833,174.667 138.167,174.333 137.5,174C 138.932,171.197 140.266,168.364 141.5,165.5C 141.833,164.5 142.5,163.833 143.5,163.5C 147.917,163.092 150.917,160.759 152.5,156.5C 154.336,154.412 156.669,153.079 159.5,152.5C 163.874,152.246 167.874,150.913 171.5,148.5C 175.81,149.694 179.476,148.527 182.5,145C 185.482,144.502 188.482,144.335 191.5,144.5C 191.577,145.75 192.244,146.583 193.5,147C 198.764,148.61 204.097,149.777 209.5,150.5C 209.5,151.833 209.5,153.167 209.5,154.5C 212.528,154.339 215.361,155.006 218,156.5C 221.829,160.494 226.329,163.494 231.5,165.5C 234.431,167.091 237.098,169.091 239.5,171.5C 240.69,173.869 242.357,175.869 244.5,177.5C 244.833,178.5 245.5,179.167 246.5,179.5C 248.262,179.357 249.929,179.691 251.5,180.5C 253.075,179.544 254.742,178.877 256.5,178.5C 257.675,178.719 258.675,178.386 259.5,177.5C 260.174,175.483 261.341,173.817 263,172.5C 263.333,172.833 263.667,173.167 264,173.5C 264.778,170.816 266.111,168.483 268,166.5C 268.036,168.941 268.869,170.941 270.5,172.5C 270.833,172 271.167,171.5 271.5,171C 270.091,169.017 269.091,166.85 268.5,164.5C 269.325,163.614 270.325,163.281 271.5,163.5C 271.5,161.833 271.5,160.167 271.5,158.5C 272.675,158.719 273.675,158.386 274.5,157.5C 276.496,155.355 278.163,153.022 279.5,150.5C 285.329,150.282 290.329,148.282 294.5,144.5C 310.808,143.393 327.142,143.227 343.5,144C 349.597,146.316 355.597,148.816 361.5,151.5 Z"/></g>
<g><path style="opacity:0.996" fill="#95494b" d="M 294.5,144.5 C 290.329,148.282 285.329,150.282 279.5,150.5C 283.895,147.36 288.895,145.36 294.5,144.5 Z"/></g>
<g><path style="opacity:1" fill="#a44d4e" d="M 191.5,144.5 C 204.605,146.385 216.272,151.552 226.5,160C 228.424,161.75 230.091,163.583 231.5,165.5C 226.329,163.494 221.829,160.494 218,156.5C 215.361,155.006 212.528,154.339 209.5,154.5C 209.5,153.167 209.5,151.833 209.5,150.5C 204.097,149.777 198.764,148.61 193.5,147C 192.244,146.583 191.577,145.75 191.5,144.5 Z"/></g>
<g><path style="opacity:1" fill="#b15153" d="M 191.5,144.5 C 188.482,144.335 185.482,144.502 182.5,145C 179.476,148.527 175.81,149.694 171.5,148.5C 167.874,150.913 163.874,152.246 159.5,152.5C 168.96,144.876 179.627,142.209 191.5,144.5 Z"/></g>
<g><path style="opacity:1" fill="#884141" d="M 279.5,150.5 C 278.163,153.022 276.496,155.355 274.5,157.5C 273.675,158.386 272.675,158.719 271.5,158.5C 271.369,157.761 271.536,157.094 272,156.5C 274.509,154.352 277.009,152.352 279.5,150.5 Z"/></g>
<g><path style="opacity:0.333" fill="#3d1e1f" d="M 367.5,156.5 C 368.906,156.973 369.573,157.973 369.5,159.5C 368.094,159.027 367.427,158.027 367.5,156.5 Z"/></g>
<g><path style="opacity:0.78" fill="#8e4645" d="M 152.5,156.5 C 150.917,160.759 147.917,163.092 143.5,163.5C 145.949,160.444 148.949,158.111 152.5,156.5 Z"/></g>
<g><path style="opacity:0.953" fill="#757a74" d="M 260.5,160.5 C 259.679,164.127 258.346,167.46 256.5,170.5C 255.576,166.116 256.909,162.782 260.5,160.5 Z"/></g>
<g><path style="opacity:1" fill="#ae5050" d="M 271.5,158.5 C 271.5,160.167 271.5,161.833 271.5,163.5C 270.325,163.281 269.325,163.614 268.5,164.5C 269.091,166.85 270.091,169.017 271.5,171C 271.167,171.5 270.833,172 270.5,172.5C 268.869,170.941 268.036,168.941 268,166.5C 266.111,168.483 264.778,170.816 264,173.5C 263.667,173.167 263.333,172.833 263,172.5C 261.341,173.817 260.174,175.483 259.5,177.5C 258.675,178.386 257.675,178.719 256.5,178.5C 260.738,171.262 265.738,164.596 271.5,158.5 Z"/></g>
<g><path style="opacity:1" fill="#b04e4f" d="M 141.5,165.5 C 140.266,168.364 138.932,171.197 137.5,174C 138.167,174.333 138.833,174.667 139.5,175C 137.844,177.197 136.678,179.697 136,182.5C 133.985,180.527 134.152,178.86 136.5,177.5C 131.998,176.633 129.331,178.633 128.5,183.5C 127.643,184.425 126.643,185.092 125.5,185.5C 129.025,177.316 134.359,170.65 141.5,165.5 Z"/></g>
<g><path style="opacity:0.102" fill="#4a3833" d="M 244.5,177.5 C 245.833,177.5 247.167,177.5 248.5,177.5C 247.833,178.167 247.167,178.833 246.5,179.5C 245.5,179.167 244.833,178.5 244.5,177.5 Z"/></g>
<g><path style="opacity:0.937" fill="#8b3f42" d="M 374.5,168.5 C 377.873,174.647 379.873,181.314 380.5,188.5C 378.292,181.972 376.292,175.306 374.5,168.5 Z"/></g>
<g><path style="opacity:0.976" fill="#8e4243" d="M 125.5,185.5 C 125.048,189.163 124.548,192.83 124,196.5C 123.311,197.357 122.478,198.023 121.5,198.5C 120.703,202.842 119.87,207.176 119,211.5C 118.339,223.27 118.839,234.937 120.5,246.5C 115.883,231.444 115.383,216.11 119,200.5C 120.685,195.146 122.851,190.146 125.5,185.5 Z"/></g>
<g><path style="opacity:1" fill="#b85e5f" d="M 271.5,208.5 C 260.751,208.14 250.085,208.806 239.5,210.5C 241.562,209.224 243.896,208.39 246.5,208C 255.01,207.177 263.344,207.343 271.5,208.5 Z"/></g>
<g><path style="opacity:1" fill="#fbddd4" d="M 271.5,208.5 C 279.576,210.289 287.576,212.289 295.5,214.5C 288.704,214.008 282.038,212.841 275.5,211C 266.833,210.333 258.167,210.333 249.5,211C 247.618,211.198 245.952,211.698 244.5,212.5C 241.167,213.167 237.833,213.833 234.5,214.5C 228.779,215.842 223.112,217.176 217.5,218.5C 224.557,214.995 231.89,212.329 239.5,210.5C 250.085,208.806 260.751,208.14 271.5,208.5 Z"/></g>
<g><path style="opacity:0.937" fill="#894042" d="M 380.5,190.5 C 381.302,191.952 381.802,193.618 382,195.5C 383.437,214.548 381.937,233.215 377.5,251.5C 377.563,242.432 378.396,233.432 380,224.5C 380.5,213.172 380.667,201.838 380.5,190.5 Z"/></g>
<g><path style="opacity:1" fill="#f7ede7" d="M 295.5,214.5 C 298.946,216.109 302.279,217.943 305.5,220C 320.007,232.343 334.34,244.843 348.5,257.5C 333.548,269.98 317.548,280.98 300.5,290.5C 290.989,294.182 281.323,297.682 271.5,301C 258.467,301.777 245.467,301.61 232.5,300.5C 211.276,296.387 192.609,287.221 176.5,273C 170.848,268.037 165.514,262.87 160.5,257.5C 176.565,240.084 195.565,227.084 217.5,218.5C 223.112,217.176 228.779,215.842 234.5,214.5C 213.766,224.492 205.933,240.825 211,263.5C 219.964,292.906 239.464,303.406 269.5,295C 293.317,284.211 303.15,265.711 299,239.5C 294.497,229.664 287.331,222.497 277.5,218C 266.904,213.938 255.904,212.105 244.5,212.5C 245.952,211.698 247.618,211.198 249.5,211C 258.167,210.333 266.833,210.333 275.5,211C 282.038,212.841 288.704,214.008 295.5,214.5 Z"/></g>
<g><path style="opacity:1" fill="#acb4af" d="M 244.5,212.5 C 255.904,212.105 266.904,213.938 277.5,218C 287.331,222.497 294.497,229.664 299,239.5C 303.15,265.711 293.317,284.211 269.5,295C 239.464,303.406 219.964,292.906 211,263.5C 205.933,240.825 213.766,224.492 234.5,214.5C 237.833,213.833 241.167,213.167 244.5,212.5 Z"/></g>
<g><path style="opacity:1" fill="#3e433d" d="M 246.5,231.5 C 274.61,228.434 283.777,240.101 274,266.5C 266.591,272.478 258.091,274.645 248.5,273C 239.255,268.545 233.588,261.211 231.5,251C 233.281,241.901 238.281,235.401 246.5,231.5 Z"/></g>
<g><path style="opacity:0.859" fill="#853c3e" d="M 374.5,266.5 C 373.116,274.128 371.116,281.462 368.5,288.5C 369.572,282.867 370.572,277.2 371.5,271.5C 372.001,269.345 373.001,267.678 374.5,266.5 Z"/></g>
<g><path style="opacity:0.996" fill="#984648" d="M 125.5,262.5 C 127.463,263.96 129.296,265.627 131,267.5C 131.113,274.388 133.446,280.388 138,285.5C 140.717,290.937 142.883,296.604 144.5,302.5C 136.568,289.967 130.234,276.634 125.5,262.5 Z"/></g>
<g><path style="opacity:0.988" fill="#8e4444" d="M 366.5,293.5 C 366.218,297.68 364.885,301.347 362.5,304.5C 361.972,300.071 363.305,296.404 366.5,293.5 Z"/></g>
<g><path style="opacity:1" fill="#c06260" d="M 300.5,290.5 C 299.71,291.794 298.71,292.961 297.5,294C 294.164,296.165 290.497,297.498 286.5,298C 285.167,298.667 285.167,299.333 286.5,300C 283.211,300.882 279.877,301.548 276.5,302C 262.167,302.667 247.833,302.667 233.5,302C 232.944,301.617 232.611,301.117 232.5,300.5C 245.467,301.61 258.467,301.777 271.5,301C 281.323,297.682 290.989,294.182 300.5,290.5 Z"/></g>
<g><path style="opacity:0.294" fill="#482423" d="M 361.5,308.5 C 361.011,309.995 360.345,311.329 359.5,312.5C 359.157,310.517 359.824,309.183 361.5,308.5 Z"/></g>
<g><path style="opacity:1" fill="#974647" d="M 362.5,304.5 C 362.167,305.833 361.833,307.167 361.5,308.5C 359.824,309.183 359.157,310.517 359.5,312.5C 357.326,318.182 354.659,323.516 351.5,328.5C 353.068,320.711 355.735,313.378 359.5,306.5C 360.265,305.388 361.265,304.721 362.5,304.5 Z"/></g>
<g><path style="opacity:1" fill="#914646" d="M 152.5,315.5 C 153.496,315.414 154.329,315.748 155,316.5C 157.972,320.778 160.138,325.444 161.5,330.5C 157.347,326.313 154.347,321.313 152.5,315.5 Z"/></g>
<g><path style="opacity:1" fill="#97484a" d="M 351.5,328.5 C 349.682,331.974 347.682,335.307 345.5,338.5C 345.956,335.356 346.956,332.356 348.5,329.5C 349.417,328.873 350.417,328.539 351.5,328.5 Z"/></g>
<g><path style="opacity:1" fill="#a74c4c" d="M 165.5,335.5 C 167.048,335.821 167.715,336.821 167.5,338.5C 168.978,338.238 170.311,338.571 171.5,339.5C 172.194,342.088 173.36,344.421 175,346.5C 175.853,348.125 176.853,348.458 178,347.5C 179.749,352.67 182.249,357.336 185.5,361.5C 180.161,356.484 175.495,350.818 171.5,344.5C 170.864,342.205 169.531,340.539 167.5,339.5C 166.326,338.486 165.66,337.153 165.5,335.5 Z"/></g>
<g><path style="opacity:0.718" fill="#582929" d="M 167.5,339.5 C 169.531,340.539 170.864,342.205 171.5,344.5C 169.457,343.421 168.124,341.754 167.5,339.5 Z"/></g>
<g><path style="opacity:1" fill="#944544" d="M 345.5,338.5 C 343.281,343.709 340.281,348.376 336.5,352.5C 336.784,350.123 336.784,347.956 336.5,346C 337.793,345.51 339.127,345.343 340.5,345.5C 341.449,343.263 342.116,340.929 342.5,338.5C 343.5,338.5 344.5,338.5 345.5,338.5 Z"/></g>
<g><path style="opacity:0.882" fill="#934746" d="M 336.5,352.5 C 334.496,356.166 331.829,359.166 328.5,361.5C 329.357,358.957 330.69,356.623 332.5,354.5C 332.182,353.353 331.516,352.519 330.5,352C 332.488,351.82 334.488,351.986 336.5,352.5 Z"/></g>
<g><path style="opacity:1" fill="#aa4b4c" d="M 328.5,361.5 C 323.833,368.167 318.167,373.833 311.5,378.5C 311.5,376.833 311.5,375.167 311.5,373.5C 312.552,373.649 313.552,373.483 314.5,373C 314.167,372.667 313.833,372.333 313.5,372C 314.859,370.796 315.859,369.296 316.5,367.5C 317.711,368.274 317.711,369.107 316.5,370C 317.635,370.749 318.635,370.583 319.5,369.5C 320.263,368.281 321.263,367.281 322.5,366.5C 321.289,365.28 321.289,364.113 322.5,363C 324.586,362.685 326.586,362.185 328.5,361.5 Z"/></g>
<g><path style="opacity:0.992" fill="#9a4d4c" d="M 191.5,368.5 C 193.258,368.877 194.925,369.544 196.5,370.5C 198.592,373.237 200.592,375.903 202.5,378.5C 198.229,375.899 194.563,372.566 191.5,368.5 Z"/></g>
<g><path style="opacity:0.996" fill="#8f4545" d="M 246.5,379.5 C 242.618,383.353 237.951,385.686 232.5,386.5C 232.908,385.357 233.575,384.357 234.5,383.5C 237.161,382.668 239.828,381.834 242.5,381C 242.167,380.667 241.833,380.333 241.5,380C 243.134,379.506 244.801,379.34 246.5,379.5 Z"/></g>
<g><path style="opacity:0.863" fill="#a04b4d" d="M 246.5,379.5 C 254.152,377.049 260.485,379.049 265.5,385.5C 259.282,383.094 252.949,381.094 246.5,379.5 Z"/></g>
<g><path style="opacity:1" fill="#844142" d="M 207.5,382.5 C 211.281,381.789 214.281,382.955 216.5,386C 221.823,386.499 227.156,386.666 232.5,386.5C 223.391,389.97 215.058,388.636 207.5,382.5 Z"/></g>
<g><path style="opacity:1" fill="#8a4443" d="M 311.5,378.5 C 310.525,380.193 309.192,381.693 307.5,383C 304.778,385.358 301.778,387.191 298.5,388.5C 298.539,387.417 298.873,386.417 299.5,385.5C 301.758,384.201 304.092,383.201 306.5,382.5C 306.5,381.167 306.5,379.833 306.5,378.5C 308.167,378.5 309.833,378.5 311.5,378.5 Z"/></g>
<g><path style="opacity:1" fill="#a74b4c" d="M 265.5,385.5 C 269.599,386.169 273.433,386.836 277,387.5C 277.333,386.833 277.667,386.167 278,385.5C 280.855,392.92 285.688,394.42 292.5,390C 292.167,389.667 291.833,389.333 291.5,389C 293.81,388.503 296.143,388.337 298.5,388.5C 291.47,394.114 283.804,394.948 275.5,391C 271.832,389.624 268.499,387.791 265.5,385.5 Z"/></g>
</svg>
